<?xml version="1.0" encoding="UTF-8"?>
<svg id="Layer_1" data-name="Layer 1" xmlns="http://www.w3.org/2000/svg" viewBox="0 0 200 100">
  <defs>
    <style>
      .cls-1 {
      fill: #000;
      }

      .cls-2 {
      fill: #d50036;
      }
    </style>
  </defs>
  <g>
    <rect class="cls-2" x="11.87" y="40.45" width="16.31" height="2.03" />
    <rect class="cls-2" x="6.85" y="44.7" width="16.31" height="2.03" />
    <rect class="cls-2" x="11.87" y="48.95" width="16.31" height="2.03" />
    <rect class="cls-2" x="15.87" y="53.21" width="16.31" height="2.03" />
    <rect class="cls-2" x="11.87" y="57.52" width="16.31" height="2.03" />
    <path class="cls-1"
      d="m46.46,54.41c-.13.63-.38,1.21-.83,1.78-.44.57-1.02,1.02-1.78,1.33-.7.32-1.59.51-2.54.51-1.02,0-1.9-.19-2.67-.57-.76-.38-1.33-.89-1.71-1.52-.38-.63-.57-1.33-.57-2.16h2.54c0,.63.19,1.21.57,1.65.44.44,1.02.7,1.9.7.76,0,1.4-.25,1.84-.7.44-.44.7-1.08.7-1.78,0-.44-.13-.89-.38-1.14-.25-.32-.57-.57-.95-.76s-.89-.44-1.52-.7c-.76-.32-1.4-.57-1.9-.83-.44-.25-.89-.63-1.21-1.08s-.51-1.08-.51-1.78c0-.32,0-.63.06-.95.19-1.02.7-1.84,1.65-2.41.95-.63,2.03-.89,3.36-.89,1.59,0,2.73.38,3.55,1.08s1.21,1.65,1.27,2.79h-2.54c0-.57-.19-1.02-.57-1.4-.38-.38-.95-.57-1.71-.57-.7,0-1.33.19-1.78.57-.44.38-.7.89-.7,1.65,0,.44.13.76.38,1.08.25.32.57.51.89.7.38.19.89.38,1.52.63.76.32,1.4.57,1.9.83s.95.63,1.27,1.14.51,1.08.51,1.84c0,.25,0,.63-.06.95Zm14.41-8l-2.03,11.43h-2.41l.44-2.48c-.44.83-1.08,1.52-1.9,1.97-.76.44-1.65.7-2.6.7-1.14,0-2.03-.32-2.67-.95s-.95-1.52-.95-2.73c0-.38.06-.83.13-1.27l1.21-6.67h2.35l-1.14,6.41c-.06.25-.06.57-.06.83,0,.76.19,1.4.63,1.78.44.38,1.08.57,1.84.57.95,0,1.78-.32,2.41-.89.63-.63,1.08-1.52,1.33-2.67v.06l1.08-6.16,2.35.06h0Zm.63,11.49l2.73-15.36h2.35l-1.14,6.6c.44-.83,1.08-1.52,1.9-2.03.83-.51,1.78-.76,2.79-.76,1.33,0,2.35.38,3.11,1.21.76.76,1.14,1.9,1.14,3.24,0,.44-.06.89-.13,1.4-.19,1.21-.63,2.22-1.21,3.11s-1.33,1.59-2.22,2.03-1.78.7-2.79.7-1.9-.25-2.54-.76-1.02-1.21-1.21-2.03l-.51,2.67h-2.29Zm6.22-1.97c1.08,0,1.97-.32,2.73-1.02.76-.7,1.27-1.59,1.46-2.79.06-.32.06-.57.06-.89,0-.89-.25-1.59-.76-2.09-.51-.51-1.21-.76-2.09-.76-1.02,0-1.9.32-2.73,1.02-.76.7-1.27,1.59-1.46,2.73-.06.25-.06.57-.06.83,0,.89.25,1.59.76,2.16.44.57,1.21.83,2.09.83Zm20.44-9.52l-2.03,11.43h-2.41l.44-2.48c-.44.83-1.08,1.52-1.9,1.97-.76.44-1.65.7-2.6.7-1.14,0-2.03-.32-2.67-.95s-.95-1.52-.95-2.73c0-.38.06-.83.13-1.27l1.21-6.67h2.35l-1.14,6.41c-.06.25-.06.57-.06.83,0,.76.19,1.4.63,1.78.44.38,1.08.57,1.84.57.95,0,1.78-.32,2.41-.89.63-.63,1.08-1.52,1.33-2.67v.13l1.08-6.16h2.35Zm4.89,2.29c.51-.76,1.21-1.33,1.97-1.78.83-.44,1.65-.63,2.6-.63l-.44,2.6h-.7c-1.02,0-1.9.25-2.67.76-.7.51-1.21,1.33-1.4,2.48h0l-1.02,5.84h-2.41l2.03-11.43h2.41l-.38,2.16Zm4,9.2l2.73-15.36h2.35l-1.14,6.6c.44-.83,1.08-1.52,1.9-2.03.83-.51,1.78-.76,2.79-.76,1.33,0,2.35.38,3.11,1.21.76.76,1.14,1.9,1.14,3.24,0,.44-.06.89-.13,1.4-.19,1.21-.63,2.22-1.21,3.11s-1.33,1.59-2.22,2.03-1.78.7-2.79.7-1.9-.25-2.54-.76-1.02-1.21-1.21-2.03l-.51,2.67c.06,0-2.29,0-2.29,0Zm6.28-1.97c1.08,0,1.97-.32,2.73-1.02s1.27-1.59,1.46-2.79c.06-.32.06-.57.06-.89,0-.89-.25-1.59-.76-2.09s-1.21-.76-2.09-.76c-1.02,0-1.9.32-2.73,1.02-.76.7-1.27,1.59-1.46,2.73-.06.25-.06.57-.06.83,0,.89.25,1.59.76,2.16s1.21.83,2.09.83Zm14.66-9.65c1.08,0,1.9.25,2.6.76.63.51,1.08,1.21,1.21,2.03l.51-2.67h2.35l-2.03,11.43h-2.35l.51-2.67c-.44.83-1.08,1.52-1.9,2.03s-1.78.76-2.79.76c-1.33,0-2.35-.38-3.11-1.21-.76-.83-1.14-1.9-1.14-3.3,0-.51.06-1.02.13-1.52.19-1.14.63-2.16,1.21-2.98.57-.89,1.33-1.52,2.16-1.97.76-.44,1.65-.7,2.67-.7Zm.44,2.09c-1.08,0-1.97.32-2.73,1.02s-1.21,1.59-1.46,2.79c-.06.32-.06.57-.06.95,0,.89.25,1.59.76,2.09s1.21.76,2.09.76c1.02,0,1.9-.32,2.67-1.02s1.27-1.59,1.46-2.79c.06-.25.06-.57.06-.89,0-.89-.25-1.59-.76-2.09-.44-.57-1.21-.83-2.03-.83Zm15.43-2.16c1.14,0,2.03.32,2.67.95s.95,1.52.95,2.73c0,.44-.06.83-.13,1.33l-1.14,6.67h-2.35l1.14-6.41c.06-.25.06-.57.06-.83,0-.76-.19-1.4-.63-1.78-.44-.44-1.02-.63-1.78-.63-.95,0-1.78.32-2.41.89s-1.08,1.46-1.33,2.67v-.06l-1.08,6.16h-2.41l2.03-11.43h2.41l-.44,2.54c.44-.89,1.08-1.52,1.84-2.03.7-.51,1.65-.76,2.6-.76Z" />
  </g>
  <g>
    <path class="cls-1"
      d="m140.05,52.42c0-4.8,3.18-9.09,7.62-9.09,1.67,0,2.93.89,3.71,2.22l-1.64,1.27c-.56-.89-1.24-1.42-2.2-1.42-2.96,0-5.04,3.47-5.04,6.84,0,2.44,1,4.09,3.36,4.09,1.02,0,1.93-.49,2.78-1.2l1.04,1.53c-.98.87-2.42,1.73-4.29,1.73-3.33,0-5.33-2.33-5.33-5.98Z" />
    <path class="cls-1"
      d="m152.09,56.62c0-.33.04-.69.16-1.16l2.6-13.02h2.38l-2.62,13.13c-.04.22-.04.33-.04.42,0,.33.16.47.38.47.13,0,.2,0,.4-.07l-.04,1.78c-.33.13-.76.22-1.36.22-1.27,0-1.84-.67-1.84-1.78Z" />
    <path class="cls-1"
      d="m157.78,53.95c0-4.18,3.02-7,6-7,2.47,0,4.09,1.71,4.09,4.44,0,4.16-3.02,7-6.02,7-2.44,0-4.07-1.73-4.07-4.44Zm7.67-2.49c0-1.64-.67-2.58-1.91-2.58-1.73,0-3.36,2.2-3.36,4.98,0,1.64.67,2.6,1.93,2.6,1.73,0,3.33-2.2,3.33-5Z" />
    <path class="cls-1"
      d="m177.88,58.13h-1.93l.09-1.56h-.09c-1.09.98-2.33,1.82-3.64,1.82-1.82,0-2.6-1.02-2.6-2.75,0-.51.07-.98.18-1.53l1.38-6.89h2.38l-1.31,6.58c-.11.51-.18.82-.18,1.16,0,.93.44,1.4,1.36,1.4.73,0,1.6-.53,2.69-1.69l1.47-7.44h2.38l-2.16,10.91Z" />
    <path class="cls-1"
      d="m190.02,46.31l.76-3.87h2.38l-3.15,15.69h-1.96l.11-1.51h-.07c-1.02,1.07-2.36,1.78-3.6,1.78-1.91,0-3.11-1.42-3.11-3.98,0-4.18,2.84-7.47,5.87-7.47,1.07,0,1.93.58,2.4,1.44h.07l.31-2.09Zm-1.69,8.29l.89-4.36c-.49-.93-1.18-1.33-1.84-1.33-1.84,0-3.53,2.38-3.53,5.18,0,1.6.62,2.36,1.62,2.36.93,0,1.96-.53,2.87-1.84Z" />
  </g>
</svg>
